# MagicaVoxel @ Ephtracy

# group
g Portal

# material
mtllib Portal.mtl
usemtl palette

# normals
vn -1 0 0
vn 1 0 0
vn 0 0 1
vn 0 0 -1
vn 0 -1 0
vn 0 1 0

# texcoords
vt 0.916016 0.5
vt 0.978516 0.5
vt 0.982422 0.5
vt 0.986328 0.5
vt 0.990234 0.5
vt 0.994141 0.5

# verts
v -2 0 4
v -2 0 3
v -2 0 2
v -2 0 1
v -2 0 -0
v -2 0 -2
v -2 0 -4
v -2 1 4
v -2 1 3
v -2 1 2
v -2 1 1
v -2 1 -0
v -2 1 -2
v -2 1 -4
v -2 3 4
v -2 3 3
v -2 3 -3
v -2 3 -4
v -2 4 4
v -2 4 3
v -2 4 -3
v -2 4 -4
v -2 5 -3
v -2 5 -4
v -2 6 4
v -2 6 3
v -2 7 4
v -2 7 3
v -2 7 -3
v -2 7 -4
v -2 9 4
v -2 9 3
v -2 9 -0
v -2 10 4
v -2 10 3
v -2 10 1
v -2 10 -0
v -2 10 -1
v -2 10 -2
v -2 10 -3
v -2 10 -4
v -2 11 4
v -2 11 1
v -2 11 -0
v -2 11 -1
v -2 11 -2
v -2 11 -3
v -1 1 3
v -1 1 2
v -1 1 -2
v -1 1 -3
v -1 2 -3
v -1 2 -4
v -1 3 4
v -1 3 3
v -1 3 -3
v -1 3 -4
v -1 4 4
v -1 4 3
v -1 4 -3
v -1 5 -3
v -1 6 3
v -1 7 3
v -1 7 -3
v -1 9 3
v -1 9 2
v -1 9 -0
v -1 9 -2
v -1 10 -0
v -1 10 -1
v -1 10 -2
v -1 10 -3
v -1 11 -1
v -1 11 -2
v 0 1 4
v 0 1 3
v 0 1 -3
v 0 1 -4
v 0 2 4
v 0 2 3
v 0 2 -3
v 0 2 -4
v 0 6 4
v 0 6 3
v 0 7 4
v 0 7 3
v 0 10 -3
v 0 10 -4
v 0 11 -3
v 0 11 -4
v 1 10 4
v 1 10 3
v 1 11 4
v 1 11 3
v -1 1 4
v -1 1 3
v -1 2 4
v -1 2 3
v -1 6 4
v -1 6 3
v -1 7 4
v -1 7 3
v -1 10 4
v -1 10 3
v -1 11 4
v -1 11 3
v 1 1 3
v 1 1 2
v 1 1 -2
v 1 1 -3
v 1 2 -3
v 1 5 4
v 1 5 3
v 1 6 4
v 1 6 3
v 1 7 3
v 1 7 -3
v 1 8 3
v 1 8 -3
v 1 9 2
v 1 9 -2
v 1 10 3
v 1 10 2
v 1 10 -1
v 1 10 -2
v 1 10 -3
v 1 10 -4
v 1 11 3
v 1 11 2
v 1 11 -1
v 1 11 -2
v 1 11 -3
v 1 11 -4
v 2 0 4
v 2 0 3
v 2 0 -0
v 2 0 -1
v 2 0 -3
v 2 0 -4
v 2 1 4
v 2 1 3
v 2 1 -0
v 2 1 -1
v 2 1 -3
v 2 1 -4
v 2 2 -3
v 2 2 -4
v 2 5 4
v 2 5 3
v 2 6 4
v 2 6 3
v 2 7 4
v 2 7 3
v 2 7 -3
v 2 7 -4
v 2 8 4
v 2 8 3
v 2 8 -3
v 2 8 -4
v 2 10 2
v 2 10 -1
v 2 10 -2
v 2 10 -3
v 2 10 -4
v 2 11 4
v 2 11 3
v 2 11 2
v 2 11 -1
v 2 11 -2
v 2 11 -3
v -2 0 4
v -2 1 4
v -2 3 4
v -2 4 4
v -2 6 4
v -2 7 4
v -2 9 4
v -2 10 4
v -2 11 4
v -1 1 4
v -1 2 4
v -1 3 4
v -1 4 4
v -1 5 4
v -1 6 4
v -1 7 4
v -1 8 4
v -1 9 4
v -1 10 4
v -1 11 4
v 0 1 4
v 0 2 4
v 0 4 4
v 0 5 4
v 0 6 4
v 0 7 4
v 0 8 4
v 0 9 4
v 0 10 4
v 1 1 4
v 1 4 4
v 1 5 4
v 1 6 4
v 1 7 4
v 1 8 4
v 1 9 4
v 1 10 4
v 1 11 4
v 2 0 4
v 2 1 4
v 2 5 4
v 2 6 4
v 2 7 4
v 2 8 4
v 2 11 4
v -1 1 3
v -1 2 3
v -1 6 3
v -1 7 3
v -1 10 3
v -1 11 3
v 0 1 3
v 0 2 3
v 0 6 3
v 0 7 3
v 0 10 3
v 1 10 3
v 1 11 3
v 1 10 2
v 1 11 2
v 2 10 2
v 2 11 2
v -2 10 -2
v -2 11 -2
v -1 1 -2
v -1 9 -2
v -1 10 -2
v -1 11 -2
v 1 1 -2
v 1 9 -2
v 1 10 -2
v 1 11 -2
v 2 10 -2
v 2 11 -2
v -2 3 -3
v -2 4 -3
v -2 5 -3
v -2 7 -3
v -2 10 -3
v -1 3 -3
v -1 4 -3
v -1 5 -3
v -1 7 -3
v -1 10 -3
v 1 1 -3
v 1 2 -3
v 1 7 -3
v 1 8 -3
v 1 10 -3
v 2 1 -3
v 2 2 -3
v 2 7 -3
v 2 8 -3
v 2 10 -3
v -2 1 3
v -2 3 3
v -2 4 3
v -2 6 3
v -2 7 3
v -2 9 3
v -1 1 3
v -1 3 3
v -1 4 3
v -1 6 3
v -1 7 3
v -1 9 3
v 1 1 3
v 1 5 3
v 1 6 3
v 1 7 3
v 1 8 3
v 1 10 3
v 1 11 3
v 2 1 3
v 2 5 3
v 2 6 3
v 2 7 3
v 2 8 3
v 2 11 3
v -1 1 2
v -1 9 2
v 1 1 2
v 1 9 2
v -2 9 -0
v -2 10 -0
v -1 9 -0
v -1 10 -0
v -2 10 -1
v -2 11 -1
v -1 10 -1
v -1 11 -1
v 1 10 -1
v 1 11 -1
v 2 10 -1
v 2 11 -1
v -2 10 -3
v -2 11 -3
v -1 1 -3
v -1 2 -3
v -1 10 -3
v 0 1 -3
v 0 2 -3
v 0 10 -3
v 0 11 -3
v 1 10 -3
v 1 11 -3
v 2 10 -3
v 2 11 -3
v -2 0 -4
v -2 1 -4
v -2 3 -4
v -2 4 -4
v -2 5 -4
v -2 7 -4
v -2 10 -4
v -1 0 -4
v -1 1 -4
v -1 2 -4
v -1 3 -4
v -1 4 -4
v -1 5 -4
v -1 7 -4
v -1 10 -4
v 0 1 -4
v 0 2 -4
v 0 3 -4
v 0 4 -4
v 0 5 -4
v 0 7 -4
v 0 8 -4
v 0 9 -4
v 0 10 -4
v 0 11 -4
v 1 1 -4
v 1 2 -4
v 1 3 -4
v 1 4 -4
v 1 5 -4
v 1 7 -4
v 1 8 -4
v 1 9 -4
v 1 10 -4
v 1 11 -4
v 2 0 -4
v 2 1 -4
v 2 2 -4
v 2 7 -4
v 2 8 -4
v 2 10 -4
v -2 0 4
v 2 0 4
v -2 0 3
v -1 0 3
v 0 0 3
v 1 0 3
v 2 0 3
v -2 0 2
v -1 0 2
v 0 0 2
v -2 0 1
v -1 0 1
v -2 0 -0
v -1 0 -0
v 1 0 -0
v 2 0 -0
v 1 0 -1
v 2 0 -1
v -2 0 -2
v -1 0 -2
v 0 0 -2
v -1 0 -3
v 0 0 -3
v 1 0 -3
v 2 0 -3
v -2 0 -4
v -1 0 -4
v 2 0 -4
v -1 2 4
v 0 2 4
v -1 2 3
v 0 2 3
v -1 2 -3
v 0 2 -3
v -1 2 -4
v 0 2 -4
v -2 3 -3
v -1 3 -3
v -2 3 -4
v -1 3 -4
v -2 4 4
v -1 4 4
v -2 4 3
v -1 4 3
v 1 6 4
v 2 6 4
v 1 6 3
v 2 6 3
v -1 7 4
v 0 7 4
v -1 7 3
v 0 7 3
v -2 9 3
v -1 9 3
v -1 9 2
v 1 9 2
v -2 9 -0
v -1 9 -0
v -1 9 -2
v 1 9 -2
v 1 10 2
v 2 10 2
v -2 10 -0
v -1 10 -0
v -2 10 -1
v -1 10 -1
v 1 10 -1
v 2 10 -1
v -2 10 -2
v -1 10 -2
v 1 10 -2
v 2 10 -2
v -2 10 -3
v -1 10 -3
v 1 10 -3
v 2 10 -3
v -1 1 4
v 0 1 4
v -2 1 3
v -1 1 3
v 0 1 3
v 1 1 3
v 2 1 3
v -2 1 2
v -1 1 2
v 1 1 2
v -2 1 1
v -1 1 1
v -2 1 -0
v -1 1 -0
v 1 1 -0
v 2 1 -0
v 1 1 -1
v 2 1 -1
v -2 1 -2
v -1 1 -2
v 1 1 -2
v -1 1 -3
v 0 1 -3
v 1 1 -3
v 2 1 -3
v -2 1 -4
v -1 1 -4
v 0 1 -4
v -2 3 4
v -1 3 4
v -2 3 3
v -1 3 3
v 1 5 4
v 2 5 4
v 1 5 3
v 2 5 3
v -1 6 4
v 0 6 4
v -1 6 3
v 0 6 3
v -1 10 4
v 0 10 4
v 1 10 4
v -1 10 3
v 0 10 3
v 1 10 3
v -2 10 -3
v -1 10 -3
v 0 10 -3
v 1 10 -3
v 2 10 -3
v -2 10 -4
v -1 10 -4
v 0 10 -4
v 1 10 -4
v 2 10 -4
v -2 11 4
v -1 11 4
v 1 11 4
v 2 11 4
v -1 11 3
v 1 11 3
v 2 11 3
v 0 11 2
v 1 11 2
v 2 11 2
v -2 11 1
v -1 11 1
v 0 11 1
v 1 11 1
v -2 11 -0
v -1 11 -0
v 0 11 -0
v 1 11 -0
v -2 11 -1
v -1 11 -1
v 0 11 -1
v 1 11 -1
v 2 11 -1
v -2 11 -2
v -1 11 -2
v 0 11 -2
v 1 11 -2
v 2 11 -2
v -2 11 -3
v 0 11 -3
v 1 11 -3
v 2 11 -3
v 0 11 -4
v 1 11 -4

# faces
f 8/1/1 2/1/1 1/1/1
f 9/4/1 3/4/1 2/4/1
f 9/1/1 2/1/1 8/1/1
f 10/3/1 4/3/1 3/3/1
f 10/4/1 3/4/1 9/4/1
f 11/4/1 5/4/1 4/4/1
f 11/3/1 4/3/1 10/3/1
f 12/3/1 6/3/1 5/3/1
f 12/4/1 5/4/1 11/4/1
f 13/5/1 7/5/1 6/5/1
f 13/3/1 6/3/1 12/3/1
f 14/5/1 7/5/1 13/5/1
f 15/3/1 9/3/1 8/3/1
f 16/3/1 9/3/1 15/3/1
f 21/3/1 18/3/1 17/3/1
f 22/3/1 18/3/1 21/3/1
f 23/4/1 22/4/1 21/4/1
f 24/4/1 22/4/1 23/4/1
f 25/3/1 20/3/1 19/3/1
f 26/3/1 20/3/1 25/3/1
f 27/4/1 26/4/1 25/4/1
f 28/4/1 26/4/1 27/4/1
f 29/3/1 24/3/1 23/3/1
f 30/3/1 24/3/1 29/3/1
f 31/3/1 28/3/1 27/3/1
f 32/3/1 28/3/1 31/3/1
f 34/4/1 32/4/1 31/4/1
f 35/6/1 33/6/1 32/6/1
f 35/4/1 32/4/1 34/4/1
f 36/6/1 33/6/1 35/6/1
f 37/6/1 33/6/1 36/6/1
f 40/5/1 30/5/1 29/5/1
f 41/5/1 30/5/1 40/5/1
f 42/3/1 35/3/1 34/3/1
f 42/3/1 36/3/1 35/3/1
f 43/5/1 37/5/1 36/5/1
f 43/3/1 36/3/1 42/3/1
f 44/3/1 38/3/1 37/3/1
f 44/5/1 37/5/1 43/5/1
f 45/3/1 38/3/1 44/3/1
f 46/3/1 40/3/1 39/3/1
f 47/3/1 40/3/1 46/3/1
f 52/6/1 51/6/1 50/6/1
f 55/6/1 49/6/1 48/6/1
f 56/3/1 53/3/1 52/3/1
f 56/6/1 52/6/1 50/6/1
f 57/3/1 53/3/1 56/3/1
f 58/4/1 55/4/1 54/4/1
f 59/6/1 49/6/1 55/6/1
f 59/4/1 55/4/1 58/4/1
f 60/6/1 56/6/1 50/6/1
f 61/6/1 60/6/1 50/6/1
f 62/6/1 49/6/1 59/6/1
f 63/6/1 49/6/1 62/6/1
f 64/6/1 61/6/1 50/6/1
f 65/6/1 49/6/1 63/6/1
f 66/6/1 49/6/1 65/6/1
f 68/6/1 64/6/1 50/6/1
f 69/6/1 68/6/1 67/6/1
f 70/6/1 68/6/1 69/6/1
f 71/6/1 64/6/1 68/6/1
f 71/6/1 68/6/1 70/6/1
f 72/6/1 64/6/1 71/6/1
f 73/3/1 71/3/1 70/3/1
f 74/3/1 71/3/1 73/3/1
f 79/1/1 76/1/1 75/1/1
f 80/1/1 76/1/1 79/1/1
f 81/3/1 78/3/1 77/3/1
f 82/3/1 78/3/1 81/3/1
f 85/5/1 84/5/1 83/5/1
f 86/5/1 84/5/1 85/5/1
f 89/3/1 88/3/1 87/3/1
f 90/3/1 88/3/1 89/3/1
f 93/3/1 92/3/1 91/3/1
f 94/3/1 92/3/1 93/3/1
f 95/3/2 96/3/2 97/3/2
f 97/3/2 96/3/2 98/3/2
f 99/4/2 100/4/2 101/4/2
f 101/4/2 100/4/2 102/4/2
f 103/3/2 104/3/2 105/3/2
f 105/3/2 104/3/2 106/3/2
f 109/6/2 110/6/2 111/6/2
f 107/6/2 108/6/2 113/6/2
f 112/3/2 113/3/2 114/3/2
f 113/6/2 108/6/2 115/6/2
f 114/3/2 113/3/2 115/3/2
f 115/6/2 108/6/2 116/6/2
f 109/6/2 111/6/2 117/6/2
f 116/6/2 108/6/2 118/6/2
f 109/6/2 117/6/2 119/6/2
f 118/6/2 108/6/2 120/6/2
f 109/6/2 119/6/2 121/6/2
f 118/6/2 120/6/2 122/6/2
f 120/6/2 121/6/2 122/6/2
f 122/6/2 121/6/2 123/6/2
f 123/6/2 121/6/2 124/6/2
f 121/6/2 119/6/2 125/6/2
f 124/6/2 121/6/2 125/6/2
f 125/6/2 119/6/2 126/6/2
f 122/3/2 123/3/2 128/3/2
f 128/3/2 123/3/2 129/3/2
f 124/3/2 125/3/2 130/3/2
f 130/3/2 125/3/2 131/3/2
f 126/3/2 127/3/2 132/3/2
f 132/3/2 127/3/2 133/3/2
f 134/1/2 135/1/2 140/1/2
f 135/3/2 136/3/2 141/3/2
f 140/1/2 135/1/2 141/1/2
f 136/4/2 137/4/2 142/4/2
f 141/3/2 136/3/2 142/3/2
f 137/3/2 138/3/2 143/3/2
f 142/4/2 137/4/2 143/4/2
f 138/1/2 139/1/2 144/1/2
f 143/3/2 138/3/2 144/3/2
f 144/1/2 139/1/2 145/1/2
f 144/4/2 145/4/2 146/4/2
f 146/4/2 145/4/2 147/4/2
f 140/3/2 141/3/2 148/3/2
f 148/3/2 141/3/2 149/3/2
f 150/3/2 151/3/2 152/3/2
f 152/3/2 151/3/2 153/3/2
f 146/3/2 147/3/2 154/3/2
f 154/3/2 147/3/2 155/3/2
f 152/5/2 153/5/2 156/5/2
f 156/5/2 153/5/2 157/5/2
f 154/5/2 155/5/2 158/5/2
f 158/5/2 155/5/2 159/5/2
f 158/3/2 159/3/2 163/3/2
f 163/3/2 159/3/2 164/3/2
f 156/3/2 157/3/2 165/3/2
f 165/3/2 157/3/2 166/3/2
f 160/3/2 161/3/2 167/3/2
f 167/3/2 161/3/2 168/3/2
f 162/3/2 163/3/2 169/3/2
f 169/3/2 163/3/2 170/3/2
f 180/1/3 172/1/3 171/1/3
f 180/3/3 173/3/3 172/3/3
f 181/3/3 173/3/3 180/3/3
f 182/3/3 173/3/3 181/3/3
f 183/3/3 175/3/3 174/3/3
f 184/3/3 175/3/3 183/3/3
f 185/4/3 176/4/3 175/4/3
f 185/3/3 175/3/3 184/3/3
f 186/3/3 177/3/3 176/3/3
f 186/4/3 176/4/3 185/4/3
f 187/3/3 177/3/3 186/3/3
f 188/4/3 178/4/3 177/4/3
f 188/3/3 177/3/3 187/3/3
f 189/3/3 179/3/3 178/3/3
f 189/4/3 178/4/3 188/4/3
f 190/3/3 179/3/3 189/3/3
f 191/1/3 180/1/3 171/1/3
f 192/4/3 182/4/3 181/4/3
f 192/4/3 183/4/3 182/4/3
f 193/5/3 184/5/3 183/5/3
f 193/4/3 183/4/3 192/4/3
f 194/2/3 185/2/3 184/2/3
f 194/5/3 184/5/3 193/5/3
f 195/2/3 185/2/3 194/2/3
f 196/5/3 187/5/3 186/5/3
f 197/2/3 188/2/3 187/2/3
f 197/2/3 189/2/3 188/2/3
f 197/5/3 187/5/3 196/5/3
f 198/2/3 189/2/3 197/2/3
f 199/2/3 189/2/3 198/2/3
f 200/1/3 191/1/3 171/1/3
f 200/1/3 192/1/3 191/1/3
f 200/1/3 193/1/3 192/1/3
f 201/3/3 195/3/3 194/3/3
f 201/1/3 193/1/3 200/1/3
f 201/3/3 194/3/3 193/3/3
f 202/3/3 195/3/3 201/3/3
f 203/5/3 196/5/3 195/5/3
f 203/3/3 195/3/3 202/3/3
f 204/3/3 198/3/3 197/3/3
f 204/5/3 196/5/3 203/5/3
f 204/3/3 197/3/3 196/3/3
f 205/3/3 198/3/3 204/3/3
f 206/5/3 199/5/3 198/5/3
f 206/3/3 198/3/3 205/3/3
f 207/5/3 199/5/3 206/5/3
f 209/1/3 200/1/3 171/1/3
f 210/3/3 202/3/3 201/3/3
f 210/1/3 200/1/3 209/1/3
f 210/3/3 201/3/3 200/3/3
f 211/3/3 202/3/3 210/3/3
f 212/3/3 204/3/3 203/3/3
f 213/5/3 205/5/3 204/5/3
f 213/3/3 204/3/3 212/3/3
f 214/3/3 208/3/3 207/3/3
f 214/5/3 205/5/3 213/5/3
f 214/3/3 207/3/3 206/3/3
f 214/3/3 206/3/3 205/3/3
f 215/3/3 208/3/3 214/3/3
f 222/6/3 217/6/3 216/6/3
f 223/6/3 217/6/3 222/6/3
f 224/6/3 219/6/3 218/6/3
f 225/6/3 219/6/3 224/6/3
f 226/3/3 221/3/3 220/3/3
f 227/3/3 221/3/3 226/3/3
f 228/3/3 221/3/3 227/3/3
f 231/3/3 230/3/3 229/3/3
f 232/3/3 230/3/3 231/3/3
f 237/3/3 234/3/3 233/3/3
f 238/3/3 234/3/3 237/3/3
f 239/6/3 236/6/3 235/6/3
f 240/6/3 236/6/3 239/6/3
f 243/3/3 242/3/3 241/3/3
f 244/3/3 242/3/3 243/3/3
f 250/3/3 246/3/3 245/3/3
f 251/4/3 247/4/3 246/4/3
f 251/3/3 246/3/3 250/3/3
f 252/3/3 248/3/3 247/3/3
f 252/4/3 247/4/3 251/4/3
f 253/5/3 249/5/3 248/5/3
f 253/3/3 248/3/3 252/3/3
f 254/5/3 249/5/3 253/5/3
f 260/4/3 256/4/3 255/4/3
f 261/3/3 257/3/3 256/3/3
f 261/4/3 256/4/3 260/4/3
f 262/5/3 258/5/3 257/5/3
f 262/3/3 257/3/3 261/3/3
f 263/3/3 259/3/3 258/3/3
f 263/5/3 258/5/3 262/5/3
f 264/3/3 259/3/3 263/3/3
f 265/3/4 266/3/4 271/3/4
f 271/3/4 266/3/4 272/3/4
f 267/3/4 268/3/4 273/3/4
f 268/4/4 269/4/4 274/4/4
f 273/3/4 268/3/4 274/3/4
f 269/3/4 270/3/4 275/3/4
f 274/4/4 269/4/4 275/4/4
f 275/3/4 270/3/4 276/3/4
f 277/3/4 278/3/4 284/3/4
f 284/3/4 278/3/4 285/3/4
f 279/3/4 280/3/4 286/3/4
f 280/5/4 281/5/4 287/5/4
f 286/3/4 280/3/4 287/3/4
f 282/3/4 283/3/4 288/3/4
f 287/5/4 281/5/4 288/5/4
f 281/3/4 282/3/4 288/3/4
f 288/3/4 283/3/4 289/3/4
f 290/6/4 291/6/4 292/6/4
f 292/6/4 291/6/4 293/6/4
f 294/6/4 295/6/4 296/6/4
f 296/6/4 295/6/4 297/6/4
f 298/3/4 299/3/4 300/3/4
f 300/3/4 299/3/4 301/3/4
f 302/3/4 303/3/4 304/3/4
f 304/3/4 303/3/4 305/3/4
f 306/3/4 307/3/4 310/3/4
f 308/6/4 309/6/4 311/6/4
f 311/6/4 309/6/4 312/6/4
f 310/3/4 307/3/4 313/3/4
f 313/3/4 307/3/4 314/3/4
f 315/3/4 316/3/4 317/3/4
f 317/3/4 316/3/4 318/3/4
f 319/5/4 320/5/4 326/5/4
f 326/5/4 320/5/4 327/5/4
f 321/3/4 322/3/4 329/3/4
f 322/4/4 323/4/4 330/4/4
f 329/3/4 322/3/4 330/3/4
f 323/3/4 324/3/4 331/3/4
f 330/4/4 323/4/4 331/4/4
f 324/5/4 325/5/4 332/5/4
f 331/3/4 324/3/4 332/3/4
f 332/5/4 325/5/4 333/5/4
f 326/1/4 327/1/4 334/1/4
f 328/3/4 329/3/4 335/3/4
f 329/3/4 330/3/4 335/3/4
f 335/3/4 330/3/4 336/3/4
f 330/5/4 331/5/4 337/5/4
f 336/3/4 330/3/4 337/3/4
f 332/3/4 333/3/4 338/3/4
f 337/5/4 331/5/4 338/5/4
f 331/3/4 332/3/4 338/3/4
f 338/3/4 333/3/4 339/3/4
f 339/3/4 333/3/4 340/3/4
f 340/3/4 333/3/4 341/3/4
f 341/3/4 333/3/4 342/3/4
f 335/3/4 336/3/4 344/3/4
f 326/1/4 334/1/4 344/1/4
f 334/3/4 335/3/4 344/3/4
f 344/3/4 336/3/4 345/3/4
f 336/4/4 337/4/4 346/4/4
f 345/3/4 336/3/4 346/3/4
f 337/3/4 338/3/4 347/3/4
f 346/4/4 337/4/4 347/4/4
f 338/5/4 339/5/4 348/5/4
f 347/3/4 338/3/4 348/3/4
f 339/3/4 340/3/4 349/3/4
f 348/5/4 339/5/4 349/5/4
f 340/4/4 341/4/4 350/4/4
f 349/3/4 340/3/4 350/3/4
f 342/3/4 343/3/4 351/3/4
f 350/4/4 341/4/4 351/4/4
f 341/3/4 342/3/4 351/3/4
f 351/3/4 343/3/4 352/3/4
f 352/3/4 343/3/4 353/3/4
f 326/1/4 344/1/4 354/1/4
f 344/4/4 345/4/4 355/4/4
f 354/1/4 344/1/4 355/1/4
f 348/3/4 349/3/4 356/3/4
f 355/4/4 345/4/4 356/4/4
f 347/3/4 348/3/4 356/3/4
f 345/3/4 346/3/4 356/3/4
f 346/3/4 347/3/4 356/3/4
f 349/5/4 350/5/4 357/5/4
f 356/3/4 349/3/4 357/3/4
f 351/3/4 352/3/4 358/3/4
f 357/5/4 350/5/4 358/5/4
f 350/3/4 351/3/4 358/3/4
f 358/3/4 352/3/4 359/3/4
f 362/1/5 361/1/5 360/1/5
f 363/1/5 361/1/5 362/1/5
f 364/1/5 361/1/5 363/1/5
f 365/1/5 361/1/5 364/1/5
f 366/1/5 361/1/5 365/1/5
f 367/4/5 363/4/5 362/4/5
f 368/3/5 364/3/5 363/3/5
f 368/4/5 363/4/5 367/4/5
f 369/6/5 365/6/5 364/6/5
f 369/3/5 364/3/5 368/3/5
f 370/3/5 368/3/5 367/3/5
f 371/6/5 369/6/5 368/6/5
f 371/3/5 368/3/5 370/3/5
f 372/4/5 371/4/5 370/4/5
f 373/6/5 369/6/5 371/6/5
f 373/4/5 371/4/5 372/4/5
f 374/6/5 365/6/5 369/6/5
f 374/6/5 369/6/5 373/6/5
f 374/3/5 366/3/5 365/3/5
f 375/3/5 366/3/5 374/3/5
f 376/6/5 374/6/5 373/6/5
f 376/4/5 375/4/5 374/4/5
f 377/4/5 375/4/5 376/4/5
f 378/3/5 373/3/5 372/3/5
f 379/6/5 376/6/5 373/6/5
f 379/3/5 373/3/5 378/3/5
f 380/6/5 376/6/5 379/6/5
f 381/5/5 379/5/5 378/5/5
f 381/5/5 380/5/5 379/5/5
f 382/6/5 376/6/5 380/6/5
f 382/5/5 380/5/5 381/5/5
f 383/3/5 377/3/5 376/3/5
f 383/6/5 376/6/5 382/6/5
f 384/3/5 377/3/5 383/3/5
f 385/5/5 381/5/5 378/5/5
f 386/1/5 382/1/5 381/1/5
f 386/5/5 381/5/5 385/5/5
f 386/1/5 383/1/5 382/1/5
f 386/1/5 384/1/5 383/1/5
f 387/1/5 384/1/5 386/1/5
f 390/4/5 389/4/5 388/4/5
f 391/4/5 389/4/5 390/4/5
f 394/3/5 393/3/5 392/3/5
f 395/3/5 393/3/5 394/3/5
f 398/3/5 397/3/5 396/3/5
f 399/3/5 397/3/5 398/3/5
f 402/3/5 401/3/5 400/3/5
f 403/3/5 401/3/5 402/3/5
f 406/3/5 405/3/5 404/3/5
f 407/3/5 405/3/5 406/3/5
f 410/5/5 409/5/5 408/5/5
f 411/5/5 409/5/5 410/5/5
f 414/6/5 413/6/5 412/6/5
f 416/6/5 414/6/5 412/6/5
f 416/6/5 415/6/5 414/6/5
f 417/6/5 415/6/5 416/6/5
f 418/6/5 415/6/5 417/6/5
f 419/6/5 415/6/5 418/6/5
f 424/3/5 423/3/5 422/3/5
f 425/3/5 423/3/5 424/3/5
f 426/3/5 421/3/5 420/3/5
f 427/3/5 421/3/5 426/3/5
f 432/3/5 429/3/5 428/3/5
f 433/3/5 429/3/5 432/3/5
f 434/3/5 431/3/5 430/3/5
f 435/3/5 431/3/5 434/3/5
f 436/1/6 437/1/6 439/1/6
f 439/1/6 437/1/6 440/1/6
f 438/4/6 439/4/6 443/4/6
f 443/4/6 439/4/6 444/4/6
f 441/3/6 442/3/6 445/3/6
f 443/3/6 444/3/6 446/3/6
f 444/6/6 445/6/6 447/6/6
f 446/3/6 444/3/6 447/3/6
f 446/4/6 447/4/6 448/4/6
f 447/6/6 445/6/6 449/6/6
f 448/4/6 447/4/6 449/4/6
f 445/3/6 442/3/6 450/3/6
f 449/6/6 445/6/6 450/6/6
f 450/3/6 442/3/6 451/3/6
f 449/6/6 450/6/6 452/6/6
f 450/4/6 451/4/6 452/4/6
f 452/4/6 451/4/6 453/4/6
f 448/3/6 449/3/6 454/3/6
f 449/6/6 452/6/6 455/6/6
f 454/3/6 449/3/6 455/3/6
f 452/3/6 453/3/6 456/3/6
f 455/6/6 452/6/6 456/6/6
f 454/5/6 455/5/6 457/5/6
f 456/3/6 453/3/6 459/3/6
f 459/3/6 453/3/6 460/3/6
f 454/5/6 457/5/6 461/5/6
f 457/1/6 458/1/6 462/1/6
f 461/5/6 457/5/6 462/5/6
f 462/1/6 458/1/6 463/1/6
f 464/3/6 465/3/6 466/3/6
f 466/3/6 465/3/6 467/3/6
f 468/3/6 469/3/6 470/3/6
f 470/3/6 469/3/6 471/3/6
f 472/2/6 473/2/6 474/2/6
f 474/2/6 473/2/6 475/2/6
f 476/2/6 477/2/6 479/2/6
f 477/5/6 478/5/6 480/5/6
f 479/2/6 477/2/6 480/2/6
f 480/5/6 478/5/6 481/5/6
f 482/5/6 483/5/6 487/5/6
f 483/3/6 484/3/6 488/3/6
f 487/5/6 483/5/6 488/5/6
f 488/3/6 484/3/6 489/3/6
f 485/3/6 486/3/6 490/3/6
f 490/3/6 486/3/6 491/3/6
f 492/3/6 493/3/6 496/3/6
f 494/3/6 495/3/6 497/3/6
f 497/3/6 495/3/6 498/3/6
f 496/3/6 497/3/6 499/3/6
f 499/3/6 497/3/6 500/3/6
f 492/3/6 496/3/6 502/3/6
f 496/3/6 499/3/6 502/3/6
f 502/3/6 499/3/6 503/3/6
f 499/5/6 500/5/6 504/5/6
f 503/3/6 499/3/6 504/3/6
f 500/3/6 501/3/6 505/3/6
f 504/5/6 500/5/6 505/5/6
f 502/5/6 503/5/6 506/5/6
f 503/3/6 504/3/6 507/3/6
f 506/5/6 503/5/6 507/5/6
f 504/3/6 505/3/6 507/3/6
f 507/3/6 505/3/6 508/3/6
f 505/3/6 501/3/6 509/3/6
f 508/3/6 505/3/6 509/3/6
f 507/3/6 508/3/6 510/3/6
f 506/3/6 507/3/6 510/3/6
f 510/3/6 508/3/6 511/3/6
f 508/5/6 509/5/6 512/5/6
f 511/3/6 508/3/6 512/3/6
f 509/3/6 501/3/6 513/3/6
f 512/5/6 509/5/6 513/5/6
f 513/3/6 501/3/6 514/3/6
f 511/3/6 512/3/6 516/3/6
f 512/3/6 513/3/6 516/3/6
f 516/3/6 513/3/6 517/3/6
f 517/3/6 513/3/6 518/3/6
f 515/3/6 516/3/6 520/3/6
f 516/3/6 517/3/6 520/3/6
f 517/4/6 518/4/6 521/4/6
f 520/3/6 517/3/6 521/3/6
f 518/3/6 519/3/6 522/3/6
f 521/4/6 518/4/6 522/4/6
f 522/3/6 519/3/6 523/3/6
f 521/3/6 522/3/6 524/3/6
f 524/3/6 522/3/6 525/3/6
